<svg fill="none" height="232" viewBox="0 0 796 232" width="796" xmlns="http://www.w3.org/2000/svg"><path d="m41.8095 91.3759c.4384-.6028.8319-1.2167 1.2028-1.8418 2.6803-4.4852 3.7389-9.7444 3.0009-14.9081s-3.2283-9.9228-7.0594-13.4903-8.7735-5.73-14.01-6.1298-10.4537.9869-14.7889 3.931c-2.22993 1.4834-4.17834 3.3465-5.75543 5.5032-3.596939 4.9264-5.075853 11.0699-4.111399 17.0791.964459 6.0092 4.293279 11.3918 9.254159 14.9637 4.96087 3.5721 11.14747 5.0401 17.19877 4.0831 6.0513-.958 11.4716-4.2637 15.0685-9.1901z" fill="#00b189"/><g fill="#231f20"><path d="m531.311 45.1616h-17.558l-6.745 15.8623h-5.351l20.841-47.52 20.931 47.52h-5.351zm-1.978-4.5879-6.835-15.7284-6.745 15.7284z"/><path d="m578.309 13.3701v47.654h-4.62v-4.253c-1.3 1.5589-2.935 2.8091-4.784 3.659-1.85.8499-3.868 1.2779-5.906 1.2526-3.924-.15-7.636-1.8034-10.359-4.6131s-4.244-6.5574-4.244-10.4567 1.521-7.647 4.244-10.4567 6.435-4.4631 10.359-4.6131c2.039-.0231 4.057.407 5.907 1.2588 1.849.8518 3.484 2.1037 4.783 3.664v-22.1804zm-4.294 33.2316c-.053-2.0741-.721-4.0866-1.92-5.7858-1.199-1.6991-2.876-3.0094-4.821-3.7669s-4.072-.9286-6.115-.4918c-2.042.4368-3.91 1.462-5.368 2.9474-1.459 1.4854-2.444 3.365-2.833 5.4036-.388 2.0387-.163 4.1458.649 6.0578.811 1.912 2.172 3.5439 3.913 4.6916 1.74 1.1477 3.783 1.7602 5.872 1.7609 1.416-.0071 2.816-.2937 4.12-.8432 1.303-.5494 2.483-1.3508 3.471-2.3573.989-1.0066 1.766-2.1983 2.286-3.5058.521-1.3075.774-2.7048.746-4.1105z"/><path d="m614.348 32.2129-14.524 30.1395-14.523-30.1395h5.148l9.375 20.2493 9.375-20.2493z"/><path d="m636.257 61.0245-.225-2.0204c-2.022 1.7164-4.602 2.6482-7.262 2.6232-1.395 0-2.776-.2728-4.065-.803-1.289-.5301-2.46-1.3071-3.446-2.2867-.987-.9795-1.769-2.1424-2.303-3.4223-.534-1.2798-.809-2.6515-.809-4.0368s.275-2.757.809-4.0369c.534-1.2798 1.316-2.4427 2.303-3.4223.986-.9795 2.157-1.7565 3.446-2.2867 1.289-.5301 2.67-.803 4.065-.803 2.538-.0462 5.004.8403 6.925 2.4893v-1.7302c0-3.7284-1.585-5.5814-6.262-5.5814-2.416.0285-4.808.4743-7.07 1.3172l.865-4.2642c2.059-.7014 4.22-1.0561 6.396-1.0493 7.06 0 10.691 3.3489 10.691 9.2428v14.5117l.202 5.5813zm-.124-9.9014c.047-1.3631-.317-2.7092-1.044-3.866-.728-1.1567-1.787-2.0716-3.041-2.6274-1.255-.5558-2.647-.7273-4.001-.4926-1.353.2347-2.604.8649-3.595 1.8101-.99.9451-1.674 2.1622-1.963 3.4955-.29 1.3332-.173 2.722.337 3.9887.509 1.2666 1.388 2.3535 2.523 3.1215 1.135.7681 2.475 1.1823 3.848 1.1898.895.0252 1.787-.1268 2.622-.4472.835-.3203 1.598-.8027 2.244-1.4189.645-.6161 1.161-1.3538 1.516-2.1699.356-.8162.544-1.6944.554-2.5836z"/><path d="m676.253 43.6547v17.3693h-4.621v-16.9786c0-5.4475-3.102-8.2605-7.52-8.2605-4.822 0-8.318 3.3488-8.318 8.9302v16.3089h-4.62v-28.454l4.361-.8483v3.9293c1.128-1.3346 2.545-2.3992 4.145-3.1143 1.6-.7152 3.342-1.0625 5.095-1.016 6.599 0 11.478 4.3982 11.478 12.134z"/><path d="m684.705 46.6019c.012-1.995.42-3.9681 1.2-5.8064.781-1.8383 1.919-3.5055 3.35-4.9064 1.43-1.4008 3.125-2.5077 4.987-3.2572 1.862-.7496 3.854-1.1271 5.863-1.1109 2.65.0155 5.261.6341 7.633 1.8084l-.888 4.4651c-2.028-1.2478-4.359-1.9267-6.745-1.9647-2.889 0-5.659 1.1397-7.702 3.1682s-3.19 4.7798-3.19 7.6486 1.147 5.62 3.19 7.6486c2.043 2.0285 4.813 3.1681 7.702 3.1681 2.533-.0488 5.001-.7988 7.127-2.1656l.798 4.4652c-2.446 1.212-5.135 1.8607-7.869 1.8976-2.01.0192-4.005-.3551-5.87-1.1016-1.865-.7464-3.563-1.8503-4.999-3.2486-1.435-1.3984-2.579-3.0637-3.366-4.9011-.787-1.8373-1.202-3.8107-1.221-5.8073z"/><path d="m716.057 21.0504c0-.6496.194-1.2845.558-1.8245.363-.5399.88-.9605 1.485-1.2086.604-.2481 1.269-.3124 1.911-.1849.641.1276 1.23.4413 1.692.9013.461.4601.775 1.046.901 1.6833.127.6374.06 1.2976-.192 1.8971-.252.5994-.677 1.1112-1.222 1.4705s-1.185.5499-1.84.5477c-.434.0029-.864-.08-1.266-.244s-.767-.4058-1.073-.7113c-.307-.3055-.549-.6686-.713-1.068-.164-.3995-.246-.8273-.241-1.2586zm.989 11.5981 4.62-.9153v29.2911h-4.62z"/><path d="m758.367 43.6547v17.3693h-4.631v-16.9786c0-5.4475-3.091-8.2605-7.52-8.2605-4.811 0-8.319 3.3488-8.319 8.9302v16.3089h-4.62v-28.454l4.362-.8483v3.9293c1.128-1.3346 2.544-2.3992 4.144-3.1143 1.6-.7152 3.342-1.0625 5.096-1.016 6.598 0 11.488 4.3982 11.488 12.134z"/><path d="m794.598 35.3948-5.149-.4577c1.428 1.0945 2.578 2.5054 3.359 4.1199.781 1.6146 1.17 3.388 1.138 5.1787-.011 2.2452-.647 4.4436-1.837 6.3525s-2.889 3.4539-4.908 4.4643c1.748 1.0217 3.198 2.4786 4.205 4.2269 1.007 1.7482 1.538 3.7272 1.539 5.7414 0 6.4187-5.148 11.7321-12.545 11.7321-2.969.1157-5.879-.8545-8.176-2.7267-2.298-1.8722-3.824-4.5164-4.29-7.4314l4.283-1.7749c.528 4.6549 3.631 7.7358 8.183 7.7358 1.05.0538 2.1-.1075 3.084-.4737.985-.3663 1.883-.9296 2.639-1.6551.756-.7256 1.353-1.5977 1.755-2.5623.403-.9645.601-2.0009.582-3.0447.004-1.0456-.206-2.0811-.617-3.0436-.411-.9626-1.015-1.832-1.775-2.5556-.761-.7235-1.661-1.286-2.647-1.6533-.985-.3673-2.036-.5317-3.088-.4833-1.412.0241-2.798.382-4.044 1.0439-1.245.662-2.313 1.609-3.117 2.7626l-2.45-3.3488c.864-.9371 1.869-1.7355 2.979-2.3665-2.036-1.0219-3.746-2.5865-4.937-4.5186-1.191-1.9322-1.817-4.1555-1.808-6.421 0-6.9544 5.542-12.3907 13.793-12.7144l14.714-.5916zm-5.081 8.9302c0-2.3817-.953-4.6659-2.649-6.3501s-3.996-2.6303-6.395-2.6303c-2.398 0-4.698.9461-6.394 2.6303s-2.649 3.9684-2.649 6.3501c.083 2.327 1.072 4.5313 2.759 6.1485 1.687 1.6171 3.94 2.5209 6.284 2.5209 2.345 0 4.598-.9038 6.285-2.5209 1.687-1.6172 2.676-3.8215 2.759-6.1485z"/><path d="m533.132 95.149c0 8.93-7.33 15.46-17.424 15.46h-4.89v14.88h-5.013v-45.8786h9.948c10.049 0 17.379 6.5525 17.379 15.5386zm-5.284 0c0-6.2959-5.081-10.8168-12.14-10.8168h-4.89v21.5558h4.935c7.014 0 12.095-4.466 12.095-10.739z"/><path d="m567.316 108.12v17.369h-4.62v-16.967c0-5.38-3.103-8.193-7.52-8.193-4.823 0-8.319 3.348-8.319 8.84v16.32h-4.62v-46.727l4.62-.9153v22.3253c1.069-1.3441 2.438-2.4231 3.998-3.1516 1.561-.7284 3.271-1.0863 4.995-1.0453 6.52.0223 11.466 4.4089 11.466 12.1449z"/><path d="m602.691 96.6553-21.841 43.9147h-5.149l9.746-19.055-12.365-24.8374h5.148l9.634 20.0934 9.633-20.0934z"/><path d="m607.188 123.134.786-4.198c2.912 2.032 5.542 3.148 8.454 3.148 2.911 0 4.946-1.708 4.946-4.465 0-1.964-.99-3.416-5.351-4.789l-1.18-.39c-4.497-1.507-6.936-4.465-6.936-8.451 0-4.5316 3.631-7.9363 8.779-7.9363 2.787.0821 5.51.8492 7.925 2.2326l-.865 4.1857c-2.104-1.388-4.539-2.2-7.06-2.355-2.833 0-4.418 1.641-4.418 3.806 0 1.831.99 3.137 4.812 4.466l1.191.39c4.89 1.574 7.588 4.588 7.588 8.852 0 5.046-3.822 8.585-9.431 8.585-3.321-.088-6.539-1.161-9.24-3.081z"/><path d="m634.57 85.5157c-.002-.6496.19-1.2852.552-1.8264.362-.5411.877-.9635 1.481-1.2136.603-.2501 1.268-.3167 1.91-.1913.642.1253 1.232.437 1.695.8955.463.4586.779 1.0433.908 1.6802.128.637.063 1.2974-.186 1.8977-.25.6004-.674 1.1136-1.218 1.4747-.543.3611-1.183.5539-1.837.5539-.434.0044-.865-.077-1.267-.2397-.402-.1626-.768-.4032-1.076-.7077-.307-.3044-.551-.6667-.716-1.0656s-.249-.8264-.246-1.2577zm.99 11.5981 4.62-.9153v29.2915h-4.62z"/><path d="m649.363 111.078c.011-1.993.417-3.965 1.196-5.803.778-1.837 1.914-3.504 3.343-4.905 1.428-1.4006 3.121-2.5079 4.981-3.2582 1.86-.7504 3.85-1.129 5.858-1.1143 2.659.0237 5.277.6499 7.655 1.8307l-.865 4.3978c-2.025-1.255-4.358-1.935-6.745-1.964-2.827.09-5.508 1.268-7.475 3.286-1.968 2.018-3.068 4.716-3.068 7.525 0 2.808 1.1 5.507 3.068 7.525 1.967 2.017 4.648 3.196 7.475 3.286 2.531-.047 4.999-.793 7.127-2.154l.787 4.465c-2.447 1.208-5.136 1.857-7.869 1.897-4.055.042-7.961-1.515-10.861-4.33-2.899-2.815-4.556-6.657-4.607-10.684z"/><path d="m679.321 123.134.798-4.198c2.901 2.032 5.542 3.148 8.442 3.148 2.901 0 4.958-1.708 4.958-4.465 0-1.964-.99-3.416-5.351-4.789l-1.192-.39c-4.552-1.507-6.924-4.465-6.924-8.451 0-4.5316 3.631-7.9363 8.779-7.9363 2.768.0913 5.47.858 7.869 2.2326l-.854 4.1857c-2.105-1.385-4.54-2.197-7.06-2.355-2.844 0-4.429 1.641-4.429 3.806 0 1.831.989 3.137 4.823 4.466l1.191.39c4.879 1.574 7.588 4.588 7.588 8.852 0 5.046-3.833 8.585-9.443 8.585-3.304-.099-6.505-1.172-9.195-3.081z"/></g><path d="m435.414 70.0878c-12.883-8.9302-23.719-11.4084-36.5-16.1079-11.05-4.0633-10.645-10.6605-7.071-14.1209 6.206-6.0279 17.986-3.6279 22.876-1.1833 3.502 1.7863 6.606 4.2538 9.128 7.2558.367.5077.847.9246 1.403 1.2185.555.2939 1.172.4568 1.801.4763.629.0194 1.255-.1052 1.828-.3643.573-.259 1.078-.6455 1.476-1.1295 1.417-1.6298 18.199-19.9145 20.065-21.9461.416-.4153.741-.9102.957-1.4546.217-.5444.319-1.1268.301-1.7118-.018-.5849-.155-1.1601-.405-1.6904-.249-.5304-.604-1.0048-1.044-1.3943-1.742-1.7191-8.61-8.23819-21.706-13.28377-10.736-4.27985-22.428-5.640043-33.869-3.940464-9.712 1.361864-29.126 5.101394-40.153 24.881834-11.028 19.7805-2.833 43.2782 6.677 51.3489 11.241 9.5442 19.537 11.6874 32.037 15.6279 12.5 3.9404 20.144 9.5553 15.794 18.0503-4.002 7.814-18.076 6.173-26.327 1.619-4.349-2.249-8.208-5.329-11.353-9.065-.375-.493-.856-.897-1.409-1.181-.552-.285-1.161-.443-1.783-.464-.622-.02-1.241.098-1.811.346s-1.077.619-1.483 1.087c-1.9 2.021-18.897 19.915-20.695 21.757-.409.407-.731.891-.948 1.425-.216.533-.322 1.104-.312 1.679.011.575.138 1.142.373 1.667.236.525.576.998.999 1.39 2.889 2.869 8.892 9.902 23.213 15.628 11.634 4.633 24.505 6.084 38.849 4.622 17.176-1.764 34.375-13.876 39.838-26.791 10.196-24.134 2.147-45.321-10.746-54.2512z" fill="#00538b"/><path d="m280.917 1.672h-49.292c-1.498 0-2.248.80372-2.248 2.41116v143.00684c-.048.304-.023.615.073.907.096.293.261.559.48.777.219.217.487.38.781.476.295.095.608.12.914.072h33.723c.307.048.62.023.915-.072.294-.096.562-.259.781-.476.219-.218.384-.484.48-.777.096-.292.121-.603.073-.907v-50.3557h12.578c8.195 0 55.374-.3907 55.374-47.933 0-47.54233-45.673-47.1293-54.632-47.1293zm-3.237 62.6344h-10.117v-29.6037h10.544c7.138 0 20.481 0 20.481 14.3107s-14.332 15.293-20.908 15.293z" fill="#00538b"/><path d="m109.245 24.1757 2.619-6.6976c-74.9776-21.30981-120.08778-3.8735-101.7087 41.4586 2.2572-1.5449 4.7732-2.6788 7.4303-3.3489-18.75003-39.226 21.3916-56.126485 91.6594-31.4121z" fill="#00538b"/><path d="m274.184 128.883v8.361c9.656 9.143 18.526 19.072 26.517 29.682 38.321 51.349 17.289 69.488-61.657 43.535-42.356-13.92-89.332-38.423-129.71-66.073l8.004-23.118h48.482l9.937 26.389c.075.472.326.899.703 1.197.376.298.852.444 1.332.41h35.904c.33.047.666.017.982-.088s.603-.281.838-.515c.236-.234.414-.519.519-.833s.136-.647.089-.975c-.049-.427-.183-.841-.393-1.217l-55.385-142.44803c-.115-.45546-.38-.85978-.752-1.14892-.373-.28914-.832-.44657-1.305-.44735h-31.475c-.5-.0205-.993.1254-1.4.41456s-.706.70504-.848 1.18171l-46.3243 118.19203c-12.4339-9.849-24.2024-20.499-35.2293-31.8813-.3709.6251-.7644 1.239-1.2028 1.8418-1.7123 2.34-3.856 4.3362-6.3174 5.8828 11.6291 13.1577 24.3089 25.3607 37.9159 36.4907 6.3399 5.254 12.9609 10.43 19.8629 15.528 43.165 31.847 95.852 59.386 143.885 73.016 83.487 23.709 106.295 2.344 69.267-55.033-8.127-12.558-19.11-25.518-32.239-38.344zm-132.296-79.3563 13.388 39.0698h-26.978z" fill="#00538b"/></svg>